{"title":"21 Grams [2003] BRRip XviD - CODY","uid":7217752,"size":1053200880,"categoryP":"video","categoryS":"movies","magnet":"?xt=urn:btih:bb2f25a87bf73ac52c801b909cdca89f1c5e69b4&amp;dn=21+Grams+%5B2003%5D+BRRip+XviD+-+CODY&amp;tr=udp%3A%2F%2Ftracker.openbittorrent.com%3A80&amp;tr=udp%3A%2F%2Fopen.demonii.com%3A1337&amp;tr=udp%3A%2F%2Ftracker.coppersurfer.tk%3A6969&amp;tr=udp%3A%2F%2Fexodus.desync.com%3A6969","seeders":0,"leechers":1,"uploader":"CODYBOSS1969","files":15,"time":1335434446,"description":"About:\n\nA freak accident brings together a critically ill mathematician, a grieving mother and a born-again ex-con.\n\n\n\nGeneral\nComplete name                            : 21 Grams [2003] BRRip XviD - CODY.avi\nFormat                                   : AVI\nFile size                                : 1 003 MiB\nDuration                                 : 2h 4mn\nOverall bit rate                         : 1 127 Kbps\nWriting library                          : VirtualDubMod build 2550/release\n\nVideo\nID                                       : 0\nFormat                                   : MPEG-4 Visual\nFormat profile                           : Advanced Simple@L5\nFormat settings, BVOP                    : 4\nFormat settings, QPel                    : No\nFormat settings, GMC                     : No warppoints\nFormat settings, Matrix                  : Default (H.263)\nCodec ID                                 : XVID\nCodec ID/Hint                            : XviD\nDuration                                 : 2h 4mn\nBit rate                                 : 989 Kbps\nWidth                                    : 720 pixels\nHeight                                   : 392 pixels\nDisplay aspect ratio                     : 16:9\nCompression mode                         : Lossy\nBits/(Pixel*Frame)                       : 0.146\nStream size                              : 881 MiB (88%)\n\nAudio\nID                                       : 1\nFormat                                   : MPEG Audio\nFormat version                           : Version 1\nFormat profile                           : Layer 3\nCodec ID                                 : 55\nCodec ID/Hint                            : MP3\nDuration                                 : 2h 4mn\nBit rate mode                            : Constant\nBit rate                                 : 128 Kbps\nChannel(s)                               : 2 channels\nSampling rate                            : 48.0 KHz\nCompression mode                         : Lossy\nStream size                              : 114 MiB (11%)\nWriting library                          : L3.99r\n\n\nIMDB link:                                &lt;a href=&quot; http://www.imdb.com/title/tt0315733/&quot; rel=&quot;nofollow&quot; target=&quot;_NEW&quot;&gt; http://www.imdb.com/title/tt0315733/&lt;/a&gt;\n\n\nSubtitles included: Arabic, Czech, Danish, English, Farsi, Frrench, Hungarian, Indonesian, Romanian, Russian, Spanish\n\n\nPlease seed at least 1,5:1 . This way this torrent has a chance to survive !\n\n\nThanks . Enjoy !!!\n\n__________________\n\n*** The original Blu-Ray has parts of &quot;fuzzy&quot;/grainy image. I kept them as in originall. [ Read on]\n\n","torrent":{"xt":"urn:btih:bb2f25a87bf73ac52c801b909cdca89f1c5e69b4","amp;dn":"21+Grams+%5B2003%5D+BRRip+XviD+-+CODY","amp;tr":["udp%3A%2F%2Ftracker.openbittorrent.com%3A80","udp%3A%2F%2Fopen.demonii.com%3A1337","udp%3A%2F%2Ftracker.coppersurfer.tk%3A6969","udp%3A%2F%2Fexodus.desync.com%3A6969"],"infoHash":"bb2f25a87bf73ac52c801b909cdca89f1c5e69b4","infoHashBuffer":{"type":"Buffer","data":[187,47,37,168,123,247,58,197,44,128,27,144,156,220,168,159,28,94,105,180]},"announce":[],"urlList":[]}}